<svg width="150" height="78" viewBox="0 0 150 78" fill="none" xmlns="http://www.w3.org/2000/svg">
<path d="M3.69647 31.0991H49.2303L26.2674 65.2241H47.4381V77.1035H0L22.9069 42.9224H3.69647V31.0991Z" fill="#FEFFAF"/>
<path d="M86.6116 31.0991H105.878L84.2033 53.0647L108.118 77.1035H88.4038L70.6495 58.6121V77.1035H53.6234V0H70.6495V47.125L86.6116 31.0991Z" fill="#FEFFAF"/>
<path d="M144.892 78C143.757 78 142.741 77.8207 141.845 77.4621C140.949 77.1632 140.173 76.6253 139.515 75.8483C138.918 75.0115 138.35 73.846 137.813 72.3517L130.734 52.3586C130.375 51.2828 129.957 50.0575 129.479 48.6828C129.001 47.2483 128.493 45.7839 127.956 44.2897C127.478 42.7954 127.03 41.3908 126.611 40.0759C126.253 38.7609 125.954 37.6253 125.715 36.669H125.357C124.939 38.8207 124.281 41.3011 123.385 44.1103C122.549 46.9195 121.742 49.5195 120.966 51.9103L112.722 77.1035H104.298L121.862 28.869L119.532 22.8621C118.576 20.2322 117.202 18.2598 115.41 16.9448C113.677 15.6299 111.377 14.9724 108.51 14.9724C107.435 14.9724 106.479 15.0322 105.642 15.1517C104.866 15.2713 104.149 15.3908 103.492 15.5103V9.23448C104.029 9.05517 104.597 8.93563 105.194 8.87586C105.851 8.75632 106.538 8.66667 107.255 8.60689C107.972 8.54712 108.719 8.51724 109.496 8.51724C112.602 8.51724 115.261 9.02529 117.471 10.0414C119.741 11.0575 121.683 12.6414 123.296 14.7931C124.969 16.9448 126.432 19.7241 127.687 23.131L144.713 68.4069C145.071 69.2437 145.37 69.9012 145.609 70.3793C145.848 70.7977 146.117 71.0966 146.416 71.2759C146.774 71.4552 147.162 71.5448 147.58 71.5448C148.058 71.5448 148.506 71.4851 148.925 71.3655C149.343 71.246 149.701 71.1563 150 71.0966V76.9241C149.582 77.1035 149.104 77.2828 148.566 77.4621C148.029 77.6414 147.461 77.7609 146.864 77.8207C146.266 77.9402 145.609 78 144.892 78Z" fill="#FEFFAF"/>
</svg>
